# xmcd CD database file
#
# Track frame offsets:
#	150
#	17201
#	31484
#	50353
#	72122
#	88143
#	102798
#	114448
#	132671
#	153337
#	167933
#	180331
#	197482
#	210272
#	223871
#	246571
#	287101
#	297914
#
# Disc length: 4323 seconds
#
# Revision: 0
# Processed by: cddbd v1.5PL3 Copyright (c) Steve Scherf et al.
# Submitted via: CDex 1.51
#
DISCID=0c10e112
DTITLE=Blues For The Slavetrain - Blues For The Slavetrain
DYEAR=1900
DGENRE=Blues
TTITLE0=Junior Wells/ Track 14
TTITLE1=Junior Wells/ Track 5
TTITLE2=Junior Wells/ Track 2
TTITLE3=Junior Wells/ Track 8
TTITLE4=Junior Wells/ Catfish Blues
TTITLE5=Junior Wells/ Track 6
TTITLE6=Junior Wells/ Shotgun Blues
TTITLE7=Junior Wells/ Cut You Loose
TTITLE8=Junior Wells/ Key to the Highway
TTITLE9=Big Joe Williams/ Break'em Down
TTITLE10=Sonny Boy Williams/ Dust my Broom
TTITLE11=Professor Longhair/ Whole Lotta Thing+
TTITLE12=Professor Longhair/ Go to the Mardi Grass
TTITLE13=Professor Longhair/ Bald Head
TTITLE14=Albert King/ Ask me no Question
TTITLE15=Albert King/ Call it Stormy Monday
TTITLE16=Earl Hooker/ Cross Cut Saw
TTITLE17=Earl Hooker/ Two Bugs in a Rug
EXTD=
EXTT0=
EXTT1=
EXTT2=
EXTT3=
EXTT4=
EXTT5=
EXTT6=
EXTT7=
EXTT8=
EXTT9=
EXTT10=
EXTT11=
EXTT12=
EXTT13=
EXTT14=
EXTT15=
EXTT16=
EXTT17=
PLAYORDER=
